<?xml version="1.0" encoding="UTF-8"?>
<svg id="Layer_2" data-name="Layer 2" xmlns="http://www.w3.org/2000/svg" viewBox="0 0 374.85 228.85">
  <defs>
    <style>
      .cls-1 {
        fill: #231f20;
        stroke-width: 0px;
      }
    </style>
  </defs>
  <path class="cls-1" d="M374.85,73.5v155.35h-33.58V82.94c0-11.03-4.47-21.01-11.7-28.23-7.22-7.22-17.2-11.69-28.23-11.69-22.05,0-39.93,17.87-39.93,39.92v145.91h-34.45V82.94c0-11.03-4.47-21.01-11.7-28.23-7.22-7.22-17.2-11.69-28.23-11.69-22.05,0-39.93,17.87-39.93,39.92v145.91h-33.66V82.94c0-11.03-4.47-21.01-11.7-28.23-7.22-7.22-17.2-11.69-28.23-11.69-22.05,0-39.93,17.87-39.93,39.92v145.91H0V73.5C0,32.91,32.91,0,73.51,0c20.3,0,38.68,8.23,51.98,21.53,1.68,1.68,3.27,3.44,4.78,5.27C143.75,10.43,164.17,0,187.03,0c20.3,0,38.68,8.23,51.98,21.53,1.83,1.83,3.56,3.75,5.18,5.76,13.46-16.65,34.06-27.29,57.15-27.29,20.3,0,38.68,8.23,51.98,21.53,13.3,13.3,21.53,31.68,21.53,51.97Z"/>
</svg>